<?xml version="1.0" encoding="utf-8"?>
<!-- Generator: Adobe Illustrator 22.1.0, SVG Export Plug-In . SVG Version: 6.00 Build 0)  -->
<svg version="1.1" xmlns="http://www.w3.org/2000/svg" xmlns:xlink="http://www.w3.org/1999/xlink" x="0px" y="0px"
	 viewBox="0 0 1400 980" style="enable-background:new 0 0 1400 980;" xml:space="preserve">
<style type="text/css">
	.st0{fill:#167FB6;}
	.st1{fill:#15729B;}
	.st2{fill:#00A3E6;}
	.st3{fill:#61E1FF;}
	.st4{fill:#0DC6FF;}
	.st5{fill:#054959;}
	.st6{fill:#097C96;}
	.st7{fill:#1299AF;}
	.st8{fill:#04607C;}
	.st9{fill:#0C7A93;}
	.st10{opacity:0.5;fill:url(#SVGID_1_);}
	.st11{fill:url(#SVGID_2_);}
	.st12{opacity:0.79;fill:url(#SVGID_3_);}
	.st13{opacity:0.79;fill:url(#SVGID_4_);}
	.st14{opacity:0.79;fill:url(#SVGID_5_);}
	.st15{fill:url(#SVGID_6_);}
	.st16{fill:url(#SVGID_7_);}
	.st17{fill:#177199;}
</style>
<g id="Background">
	<g id="Layer_1_1_">
	</g>
	<g id="Layer_2">
	</g>
	<g id="Layer_1_2_">
	</g>
</g>
<g id="object">
	<g>
		<rect class="st0" width="1400" height="980"/>
		<g>
			<path class="st1" d="M1083.1,842.3c-39.3,2.6-78.1,7.5-117.5,9.3c-105.1,4.7-210-13.1-315.3-10.1c-73,2-144.6,14-217.7,14.3
				c-49.6,0.2-98.7-5.1-148.3-6.3c-94.4-2.3-189.4,10-283.2,9.6V980H1400V845.8C1294.7,844.3,1187.8,835.3,1083.1,842.3z"/>
		</g>
		<g>
			<path class="st2" d="M1220.7,973.4c-11.7,3.1-23.7,5.3-35.7,6.6h55.7c18.1-6.5,36.2-13,54.3-19.4c24.2-8.7,48.9-17.4,74.6-18.2
				c8.5-0.3,17,0.3,25.3-1.7c1.7-0.4,3.5-1,5.1-1.7v-8.4c-24.4,7.6-51.5,6.4-77.1,10.8C1287.7,947.3,1255.2,964.2,1220.7,973.4z"/>
			<path class="st2" d="M1075.7,846.2c-2.1,1.3-4,2.9-5.5,4.9c-2.4,3.3-3.5,7.3-5.5,10.9c-6,10.9-24.1,16.2-35.9,20.4
				c-18.7,24.2-53.1,35-82.3,25.7c-17.3-5.5-31.9-16.9-47.3-26.5c-0.1-0.1-0.2-0.2-0.4-0.2c-6.7-4.1-13.6-7.9-20.9-10.7
				c-36.6-13.9-81.3-1.8-114.1-23.4c-0.6-0.4-1.2-0.7-1.9-1.1h-27.8c2,1,4.2,1.7,6.2,2.6c11.1,5.1,17.6,16.9,27.4,24.1
				c13.2,9.7,30.8,10.4,47.1,8.9c16.3-1.5,32.8-4.7,48.8-1.5c10.8,2.1,20.7,7,30.5,11.9c13.9,6.9,27.8,13.8,41.7,20.6
				c3.2,1.6,6.6,3.4,8.6,6.4c2,3,1.9,3.9-1.6,4.8c-11.6,3.2-24-0.7-34.9-6c-10.8-5.3-21.1-12.1-32.7-15.4
				c-29.7-8.4-59.2,6.9-90.1,8.3c11.3,9.5,27.8,9.6,42.3,7c14.6-2.6,29.1-7.4,43.8-5.8c27.7,3,47.9,27.1,73.1,39.1
				c19.7,9.4,42.2,11.1,64,11c13.1-0.1,26.9-0.6,38.7,5.1c6,2.9,11.2,7.3,17.1,10.4c1.4,0.8,2.9,1.4,4.4,2h64.2
				c-19.8-2.1-39.4-6.7-58.1-13.7c-1.5-4,3.2-7.5,7.2-9.2c32.6-13.9,62.7-32.2,95.3-46.1c-37.1,3.8-70.2,24.7-106.4,33.8
				c-34.9,8.8-72.7,6.2-106.1-7.2c0.3-9.5,11.6-18.1,21-20.1c9.3-2,19.3-1.2,28.2-4.7c10.3-4,17.7-12.9,26.8-19
				c13.6-9,31.7-12.3,41-25.6c4-5.8,6.2-13.2,12-17.1c2.8-1.9,6.3-2.9,8.9-5H1075.7z"/>
			<path class="st2" d="M1298.3,872.4c-4.8-3.5,1-13-3.8-16.6c-1.2-0.9-2.7-1.1-4-1.7c-3-1.4-4.5-4.5-4.6-7.9h-70.7
				c-14.1,5.4-26.6,14.3-39.5,22.2c-18.5,11.2-38.2,20.4-58.7,27.3c31.7-0.6,53.8-22.2,85.5-20.2c21.9-12.5,34.5-18.3,59.7-18.2
				c3.1,0,6.5,0.2,8.9,2.1c5.8,4.6,1.5,14.2-4.5,18.5c-6.1,4.2-13.9,6.7-17.4,13.2c-1.8,3.5-2,7.7-3.3,11.4
				c-7.7,23-47.6,19.9-56,42.7c7.9,2.6,16.4,2.8,24.6,1.4c21.8-3.9,39.6-19,56.3-33.5c7.2-6.3,14.4-12.5,21.6-18.8
				c6.9-6,16.1-12.4,24.4-8.7c7.3,3.3,9.7,12.7,16.3,17.3c5,3.5,11.6,3.7,17.7,3.6c16.5-0.1,33.6-0.6,49.3-5.4v-29.1
				c-11.1,3.8-21.5,11.1-33.6,11.8C1343,885.3,1320.2,864,1298.3,872.4z"/>
			<path class="st2" d="M18.2,966.7c-1.1-0.7-2.1,1-1,1.7c6.9,4.4,14,8.3,21.3,11.6h4.6C34.5,976.2,26.2,971.8,18.2,966.7z"/>
			<path class="st2" d="M209.4,948.8c0-0.8-0.5-1.6-1.4-1.6c-0.5,0-0.9,0.2-1.2,0.6c-17.9-6.3-39.3-6.2-58.6-8.9
				c-24.1-3.3-47-11.9-69.8-20.4C67,914.4,39,897.5,28.1,905.2c4,8.9,16,16,24.7,20.4c14.6,7.3,30.8,10.2,46.9,13.1
				c43,7.7,86.1,15.3,129.1,23C223.2,955.8,216.6,951.7,209.4,948.8z"/>
			<path class="st2" d="M234.8,885.5c-26.1-1.6-52.9-15.8-77-5.9c-15.7,6.4-30.5,22.7-46.2,16.4c-9.6-3.8-21.2-5.1-31.3-7.7
				c-21.1-5.5-42.2-11-63.3-16.5c13.6,14.5,36.7,19.5,55.8,25.2c28.2,8.4,56.7,16.9,85.9,20.5c19.4,2.4,39.1,2.6,58.1,6.9
				c27.6,6.3,56,21.3,82.7,11.8c-39.5,0.4-74.8-30.9-114.1-26.8c-6.4,0.7-16.4-2.6-20.8-7.4c-1.9-2.1-3.3-5-2.1-7.6
				c1.1-2.6,4.3-3.5,7.1-4c13.4-2.5,27.3-2.5,40.7-0.1c14.4,2.6,22.4,6.6,37,7.1c29.5,1,55-20.6,84-26.1c18.8-3.5,39.7-0.4,56-10.6
				c-28.5-0.5-53.5,1.7-80.9,9.5C282.8,877.1,259.3,887,234.8,885.5z"/>
			<path class="st2" d="M364.1,879.8c-13.4,4.9-26.1,11.5-39.2,17.3c-10.2,4.5-21.1,8.5-32.1,7.2c13.5,4.5,28.5,3.8,42.2-0.2
				c13.7-4,26.9-9.9,40.7-13.3c22.3-5.4,45.6-4.1,68.5-2.8c-9.9-6.3-26.7-12.7-38.3-14.3C391.9,871.9,377.5,874.9,364.1,879.8z"/>
			<path class="st2" d="M601.5,904c-42.1,17.4-90.7,19-136.1,14.6c-25.3-2.4-39.5-3.4-63.8,3.8C467,943.6,541,936.8,601.5,904z"/>
			<path class="st2" d="M696.3,903.9c1.3,0,1.3-2,0-2C695,901.9,695,903.9,696.3,903.9z"/>
			<path class="st2" d="M710.6,925.4c0.9,0.9,2.3-0.5,1.4-1.4c-0.5-0.5-0.9-0.9-1.4-1.4c-0.9-0.9-2.3,0.5-1.4,1.4
				C709.6,924.5,710.1,924.9,710.6,925.4z"/>
			<path class="st2" d="M253.4,978.1c-1.1,0-1.3,1.5-0.5,1.9h0.9C254.7,979.6,254.5,978.1,253.4,978.1z"/>
			<path class="st2" d="M143,967.2c-1.3,0-1.3,2,0,2C144.3,969.2,144.3,967.2,143,967.2z"/>
			<path class="st2" d="M114.4,966.5c1.3,0,1.3-2,0-2h-2.7c-1.3,0-1.3,2,0,2H114.4z"/>
			<path class="st2" d="M438.2,855.7c-0.6,0-1.1,0-1.7,0c0.1,0.3,0.4,0.5,0.8,0.5C437.8,856.2,438.1,856,438.2,855.7z"/>
			<path class="st2" d="M466,884.2c-1.3,0-1.3,2,0,2C467.3,886.2,467.3,884.2,466,884.2z"/>
			<path class="st2" d="M501.4,894.4c1.3,0,1.3-2,0-2H500c-1.3,0-1.3,2,0,2H501.4z"/>
			<path class="st2" d="M538.2,897.8c-1.3,0-1.3,2,0,2C539.5,899.8,539.5,897.8,538.2,897.8z"/>
			<path class="st2" d="M479.6,899.2c-1.3,0-1.3,2,0,2C480.9,901.2,480.9,899.2,479.6,899.2z"/>
			<path class="st2" d="M498.7,901.2c1.3,0,1.3-2,0-2C497.4,899.2,497.4,901.2,498.7,901.2z"/>
			<path class="st2" d="M734.8,894.7c3.2,0,3.2-5,0-5C731.5,889.7,731.5,894.7,734.8,894.7z"/>
			<path class="st2" d="M71.9,869.8c0.9-1,1-2.5,0-3.5l-1.1-1.1c-0.9-0.9-2.6-1-3.5,0c-0.9,1-1,2.5,0,3.5c0.4,0.4,0.8,0.8,1.1,1.1
				C69.3,870.7,71,870.8,71.9,869.8z"/>
			<path class="st2" d="M45.5,945.4c0-0.8-0.7-1.5-1.5-1.5c-0.8,0-1.5,0.7-1.5,1.5v1.1c0,0.8,0.7,1.5,1.5,1.5c0.8,0,1.5-0.7,1.5-1.5
				V945.4z"/>
			<path class="st2" d="M70.5,962.5v-2.3c0-0.8-0.7-1.5-1.5-1.5c-0.8,0-1.5,0.7-1.5,1.5v2.3c0,0.8,0.7,1.5,1.5,1.5
				C69.8,963.9,70.5,963.3,70.5,962.5z"/>
			<path class="st2" d="M197.7,979.2c-0.7,0-1.1,0.4-1.3,0.8h2.6C198.8,979.5,198.4,979.2,197.7,979.2z"/>
			<path class="st2" d="M106.6,951.8c-1.9,0-1.9,3,0,3C108.5,954.8,108.5,951.8,106.6,951.8z"/>
			<path class="st2" d="M105.5,912c-1.9,0-1.9,3,0,3C107.4,915,107.4,912,105.5,912z"/>
			<path class="st2" d="M179.5,932.5c-1.9,0-1.9,3,0,3C181.4,935.5,181.4,932.5,179.5,932.5z"/>
			<path class="st2" d="M272.9,953.7c1.9,0,1.9-3,0-3C271,950.7,271,953.7,272.9,953.7z"/>
			<path class="st2" d="M230.8,900.2c1.9,0,1.9-3,0-3C228.8,897.2,228.8,900.2,230.8,900.2z"/>
			<path class="st2" d="M192,897.9c1.9,0,1.9-3,0-3C190.1,894.9,190.1,897.9,192,897.9z"/>
			<path class="st2" d="M86.1,861.9c-1.9,0-1.9,3,0,3C88,864.9,88,861.9,86.1,861.9z"/>
			<path class="st2" d="M9.8,916.2c1.9,0,1.9-3,0-3C7.8,913.2,7.8,916.2,9.8,916.2z"/>
			<path class="st2" d="M33.7,967.4c1.9,0,1.9-3,0-3C31.8,964.4,31.8,967.4,33.7,967.4z"/>
			<path class="st2" d="M140.8,861.9c-1.9,0-1.9,3,0,3C142.7,864.9,142.7,861.9,140.8,861.9z"/>
			<path class="st2" d="M187.5,865.4c-1.9,0-1.9,3,0,3C189.4,868.4,189.4,865.4,187.5,865.4z"/>
			<path class="st2" d="M235.3,869.9c-1.9,0-1.9,3,0,3C237.2,872.9,237.2,869.9,235.3,869.9z"/>
			<path class="st2" d="M277.5,872.9c1.9,0,1.9-3,0-3C275.5,869.9,275.5,872.9,277.5,872.9z"/>
			<path class="st2" d="M324.2,932.1c1.9,0,1.9-3,0-3C322.2,929.1,322.2,932.1,324.2,932.1z"/>
			<path class="st2" d="M410.7,929.8c1.9,0,1.9-3,0-3C408.8,926.8,408.8,929.8,410.7,929.8z"/>
			<path class="st2" d="M380.3,953.2c-1.5,1.1-3,2.3-4.6,3.4c-0.6,0.5-1,1.3-0.5,2.1c0.4,0.6,1.4,1,2.1,0.5c1.5-1.1,3-2.3,4.6-3.4
				c0.6-0.5,1-1.3,0.5-2.1C382,953.1,381,952.7,380.3,953.2z"/>
			<path class="st2" d="M547.4,860.8c-1.9,0-1.9,3,0,3C549.3,863.8,549.3,860.8,547.4,860.8z"/>
			<path class="st2" d="M675,887.7c1.9,0,1.9-3,0-3C673,884.7,673,887.7,675,887.7z"/>
			<path class="st2" d="M710.3,902.9c-1.9,0-1.9,3,0,3C712.2,905.9,712.2,902.9,710.3,902.9z"/>
			<path class="st2" d="M687.5,942.3c1.9,0,1.9-3,0-3C685.6,939.3,685.6,942.3,687.5,942.3z"/>
			<path class="st2" d="M647.6,857c1.9,0,1.9-3,0-3C645.7,854,645.7,857,647.6,857z"/>
			<path class="st2" d="M713.7,867.2c1.9,0,1.9-3,0-3C711.8,864.2,711.8,867.2,713.7,867.2z"/>
			<path class="st2" d="M776.4,925.7c-1.9,0-1.9,3,0,3C778.3,928.7,778.3,925.7,776.4,925.7z"/>
			<path class="st2" d="M918.7,915.4c-1.9,0-1.9,3,0,3C920.7,918.4,920.7,915.4,918.7,915.4z"/>
			<path class="st2" d="M1099.8,899.1c1.9,0,1.9-3,0-3C1097.9,896.1,1097.9,899.1,1099.8,899.1z"/>
		</g>
		<g>
			<path class="st2" d="M0,0v152c22.8,18,48,31.4,76.8,35.2c17,2.2,34.1,0.9,51.2,0.3c73.1-2.8,146.7,6.4,216.9,27
				c35.3,10.4,70.7,23.8,107.4,22.1c31.5-1.5,61.4-14,92.5-18.8c78.5-12,157.4,25.7,236.5,19.3c35.9-2.9,63.2-18.9,99-22.7
				c34.2-3.6,68.6,2.8,102.9,5.2c52.1,3.6,104.9-2.3,155-17.3c64.6-19.3,131.5-6.6,195.3-28.5c24.3-8.4,46.1-21.8,66.4-37.6V0H0z"/>
			<path class="st3" d="M1220.7,127.2c-47.8,12.7-99.6,10.2-145.9-7.1c-1.5-4,3.2-7.5,7.2-9.2c32.6-13.9,62.7-32.2,95.3-46.1
				c-37.1,3.8-70.2,24.7-106.4,33.8c-34.9,8.8-72.7,6.2-106.1-7.2c0.3-9.5,11.6-18.1,21-20.1c9.3-2,19.3-1.2,28.2-4.7
				c10.3-4,17.7-12.9,26.8-19c13.6-9,31.7-12.3,41-25.6c4-5.8,6.2-13.2,12-17.1c2.8-1.9,6.3-2.9,8.9-5h-27.1c-2.1,1.3-4,2.9-5.5,4.9
				c-2.4,3.3-3.5,7.3-5.5,10.9c-6,10.9-24.1,16.2-35.9,20.4c-18.7,24.2-53.1,35-82.3,25.7c-24.9-7.9-44.2-28.2-68.6-37.4
				c-36.6-13.9-81.3-1.8-114.1-23.4c-0.6-0.4-1.2-0.7-1.9-1.1h-27.8c2,1,4.2,1.7,6.2,2.6c11.1,5.1,17.6,16.9,27.4,24.1
				c13.2,9.7,30.8,10.4,47.1,8.9s32.8-4.7,48.8-1.5c10.8,2.1,20.7,7,30.5,11.9c13.9,6.9,27.8,13.8,41.7,20.6
				c3.2,1.6,6.6,3.4,8.6,6.4c2,3,1.9,3.9-1.6,4.8c-11.6,3.2-24-0.7-34.9-6c-10.8-5.3-21.1-12.1-32.7-15.4
				c-29.7-8.4-59.2,6.9-90.1,8.3c11.3,9.5,27.8,9.6,42.3,7c14.6-2.6,29.1-7.4,43.8-5.8c27.7,3,47.9,27.1,73.1,39.1
				c19.7,9.4,42.2,11.1,64,11c13.1-0.1,26.9-0.6,38.7,5.1c6,2.9,11.2,7.3,17.1,10.4c19,10.1,42.3,5.9,63.2,11.1
				c9,2.2,17.6,6.2,26.7,8.2c22.9,5,46.4-3,68.5-10.9c24.1-8.6,48.3-17.3,72.4-25.9c24.2-8.7,48.9-17.4,74.6-18.2
				c8.5-0.3,17,0.3,25.3-1.7c1.7-0.4,3.5-1,5.1-1.7v-8.4c-24.4,7.6-51.5,6.4-77.1,10.8C1287.7,101.1,1255.2,118,1220.7,127.2z"/>
			<path class="st4" d="M1366.4,37.7c-23.4,1.4-46.2-19.9-68.1-11.5c-4.8-3.5,1-13-3.8-16.6c-1.2-0.9-2.7-1.1-4-1.7
				c-3-1.4-4.5-4.5-4.6-7.9h-70.7c-14.1,5.4-26.6,14.3-39.5,22.2c-18.5,11.2-38.2,20.4-58.7,27.3c31.7-0.6,53.8-22.2,85.5-20.2
				c21.9-12.5,34.5-18.3,59.7-18.2c3.1,0,6.5,0.2,8.9,2.1c5.8,4.6,1.5,14.2-4.5,18.5c-6.1,4.2-13.9,6.7-17.4,13.2
				c-1.8,3.5-2,7.7-3.3,11.4c-7.7,23-47.6,19.9-56,42.7c7.9,2.6,16.4,2.8,24.6,1.4c21.8-3.9,39.6-19,56.3-33.5
				c7.2-6.3,14.4-12.5,21.6-18.8c6.9-6,16.1-12.4,24.4-8.7c7.3,3.3,9.7,12.7,16.3,17.3c5,3.5,11.6,3.7,17.7,3.6
				c16.5-0.1,33.6-0.6,49.3-5.4V25.9C1388.9,29.6,1378.5,36.9,1366.4,37.7z"/>
			<path class="st4" d="M866.1,121.4c-1-2.7-4.2-4.3-6.4-5.7c-3.7-2.3-7.5-4.3-11.5-6.1c-33-14.6-71.7-11-106.8-9.9
				c-84.5,2.7-168.6,9.7-252.7,17.9c-10.8,1.1-21.6,2-32.2,3.7c-10.3,1.6-21.8,3.4-31.4,7.8c-4.1,1.9-9.9,6.9-5.9,11.5
				c2.3,2.7,7.1,3.4,10.4,4.1c5.1,1,10.2,1.2,15.4,0.8c1.3-0.1,1.3-2.1,0-2c-4.1,0.3-8.2,0.3-12.3-0.3c-4.1-0.6-17-2.8-11-9.4
				c2.9-3.1,7.7-4.2,11.6-5.4c4.2-1.3,8.4-2.3,12.7-3.2c17.6-3.7,35.7-4.9,53.5-6.6c35.9-3.5,71.8-6.9,107.7-9.7
				c36.4-2.8,72.8-4.9,109.3-6.3c18-0.7,35.9-1.3,53.9-1.7c15.8-0.3,31.6-0.2,47.2,2.2c8.3,1.3,16.6,3.2,24.5,6.2
				c4.2,1.6,8.4,3.4,12.3,5.6c1.9,1.1,3.8,2.2,5.6,3.4c0.7,0.5,1.7,1,2.2,1.6c1.5,1.8,1,5.8-0.7,7.6c-3.2,3.3-9.8,4.8-14,6.4
				c-4.2,1.6-8.5,2.9-12.8,4.2c-9.8,2.7-19.7,4.6-29.8,5.6c-1.3,0.1-1.3,2.1,0,2c18.1-1.8,35.9-6.3,52.6-13.6
				C861.5,130.3,868,126.9,866.1,121.4z"/>
			<path class="st4" d="M722.7,112.5c-39.7-0.2-79.5,2-118.8,7c-18.5,2.4-36.8,5.8-55.1,9.7c-10.6,2.3-20.2,2.6-30.9,1
				c-7.9-1.2-15.8-2.2-23.4,0.8c-1.2,0.5-0.7,2.4,0.5,1.9c8.9-3.5,17.9-1.3,27-0.1c9,1.2,17.5,0.4,26.3-1.4c19.1-4,38-7.7,57.4-10.1
				c38.8-4.9,77.9-6.9,116.9-6.8C724,114.5,724,112.5,722.7,112.5z"/>
			<path class="st3" d="M400.6,124.4c-6.4,0.8-12.6,2.1-18.6,4.3c-4.3,1.5-12.1,3.7-14.9,7.5c-1.8,2.5-0.5,4.6,2.1,5.7
				c2.9,1.2,6.7,1.6,9.8,2.2c4.1,0.9,8.2,1.8,12.3,2.7c1.3,0.3,1.8-1.7,0.5-1.9c-4.4-1-8.8-1.9-13.2-2.9c-1.5-0.3-6.5-0.6-7.6-1.7
				c-3.7-3.7,1-5,3.1-6.1c8.3-4.1,17.3-6.7,26.5-7.8C401.9,126.2,401.9,124.2,400.6,124.4z"/>
			<path class="st4" d="M886.3,138.2c-4.9-6.5,0.9-12.9,2-19.6C889.9,108,877,103,869,99.7c-1.2-0.5-1.7,1.5-0.5,1.9
				c4.9,2,10.3,4.5,14.4,8c6.3,5.5,2.3,11.7,0.3,18.1c-0.9,3-1.4,6.4-0.1,9.3c0.6,1.2,2.4,2.4,2.8,3.5c0.6,1.9-1.1,6.6-2.7,7.7
				c-1.3,0.9-3.3,1.3-4.8,1.7c-18.3,4.9-37.9,3-55.3,11.2c-1.2,0.5-0.1,2.3,1,1.7c12.2-5.7,25.6-6.5,38.8-8.1
				c5.4-0.7,10.8-1.5,16-2.9c3.6-1,8-2.4,9.8-5.9C890.3,142.6,888.2,140.7,886.3,138.2z"/>
			<path class="st3" d="M778.2,158.3c-15.2,1.5-29.6,4.3-44.4,8c-16.1,4.1-32.4,3.5-48.8,2.5c-1.3-0.1-1.3,1.9,0,2
				c15.2,0.9,30.7,1.7,45.6-1.7c7.4-1.7,14.6-4,22-5.4c8.4-1.6,17-2.6,25.5-3.4C779.4,160.2,779.5,158.2,778.2,158.3z"/>
			<path class="st3" d="M567.8,169.9c-19.5-4.5-38.5-4.6-58.4-3.6c-10.1,0.5-19.6-0.7-29.4-3.2c-8.6-2.2-17-4.4-25.9-4.2
				c-1.3,0-1.3,2,0,2c9.3-0.3,18.1,2.3,27.1,4.5c8.8,2.2,17.2,3.3,26.3,3c9.6-0.4,19.1-1.3,28.7-0.9c10.5,0.4,20.9,1.9,31.1,4.3
				C568.5,172.1,569,170.2,567.8,169.9z"/>
			<path class="st4" d="M589.8,167.4h-6.5c-1.3,0-1.3,2,0,2h6.5C591.1,169.4,591.1,167.4,589.8,167.4z"/>
			<path class="st4" d="M436.4,181.9c-20.1,2-38.8-6.2-58.1-10.2c-16.6-3.5-33.8-4-50-9.4c-8.3-2.8-16.9-7.1-22.6-13.9
				c-3.1-3.7-5.6-8.4-5.6-13.4c0-5.3,3.3-9,7-12.4c14.3-12.7,31.6-21.8,49.9-27c1.2-0.4,0.7-2.3-0.5-1.9
				c-15.4,4.4-29.9,11.3-42.7,20.9c-5.2,3.9-12,8.4-14.6,14.6c-2,4.9-1,10.3,1.3,14.9c6.1,12.1,20.1,18.3,32.5,21.7
				c15.2,4.1,31.1,4.8,46.5,8.2c18.8,4.2,37.2,11.8,56.9,9.9C437.6,183.8,437.6,181.8,436.4,181.9z"/>
			<path class="st4" d="M963.5,162.3c-1.1-9.2-10.2-16.8-16.3-22.9c-15.9-15.9-34-29.6-53.5-40.7c-1.1-0.6-2.1,1.1-1,1.7
				c15.4,8.7,29.8,19,43,30.7c6.3,5.6,12.3,11.5,17.9,17.8c2.9,3.2,5.9,6.7,7.3,10.9c1.8,5.5-0.4,13-7,13.6c-1.3,0.1-1.3,2.1,0,2
				C960.4,174.9,964.3,168.6,963.5,162.3z"/>
			<path class="st4" d="M299.7,184.1c-34.5-15.5-71.2-26.2-108.7-31.5c-18.5-2.6-37.1-3.8-55.8-3.9c-19.8-0.1-39.6,0-59.1-4.2
				c-20.6-4.5-40.2-12.7-58-24c-1.1-0.7-2.1,1-1,1.7c31.1,19.9,65.9,28.1,102.6,28.5c19.5,0.2,38.8,0.2,58.2,2.3
				c19.5,2.1,38.7,5.6,57.7,10.6c21.6,5.6,42.7,13.1,63.1,22.3C299.9,186.3,300.9,184.6,299.7,184.1z"/>
			<path class="st4" d="M553.1,195.1c-64.3-5.5-133.2,40-194.9,7c-1.1-0.6-2.1,1.1-1,1.7c62.2,33.3,131.2-12.3,195.9-6.7
				C554.4,197.2,554.4,195.2,553.1,195.1z"/>
			<path class="st3" d="M1306.6,135.1c-39.4,14.7-78.7,28.4-121,31c-19.9,1.2-40.1,1.3-59.7,5.1c-19.7,3.9-38.2,11.7-57,18.3
				c-19.5,6.8-39.2,11-59.9,12c-20.2,1-40.4-0.3-60.5-2.1c-20.6-1.8-41.2-4.1-61.9-4.7c-19.7-0.6-39.3,0.3-58.7,3.7
				c-46,8.1-96.2,27.3-136.8,11.6c-1.2-0.5-1.8,1.7-0.5,1.9c39,8.5,78.4-0.6,116.8-7.9c20.6-3.9,41.3-7.2,62.4-7.5
				c20.7-0.3,41.3,1.5,61.9,3.4c40.4,3.7,81.7,7.8,121.4-3.2c19.2-5.4,37.6-13.6,56.7-19.3c20.5-6.1,41.4-7.6,62.7-8.6
				c22.9-1.1,45.3-3.4,67.6-9.2c22.9-5.9,45.1-14.2,67.2-22.5C1308.3,136.6,1307.8,134.6,1306.6,135.1z"/>
			<path class="st3" d="M52.8,79.3c14.6,7.3,30.8,10.2,46.9,13.1c43,7.7,86.1,15.3,129.1,23c-19.6-20.8-52.3-18.8-80.6-22.6
				c-24.1-3.3-47-11.9-69.8-20.4C67,68.2,39,51.3,28.1,58.9C32,67.8,44,75,52.8,79.3z"/>
			<path class="st4" d="M109.6,163.6c28-0.9,56.3-7.2,83.6-0.8c-24,0.4-46.5,11.5-70.2,15.4c-10.7,1.8-57.2,5.4-63.4-7.2
				C51.9,155.5,102.5,163.8,109.6,163.6z"/>
			<path class="st4" d="M72.8,50.8c28.2,8.4,56.7,16.9,85.9,20.5c19.4,2.4,39.1,2.6,58.1,6.9c27.6,6.3,56,21.3,82.7,11.8
				c-39.5,0.4-74.8-30.9-114.1-26.8c-6.4,0.7-16.4-2.6-20.8-7.4c-1.9-2.1-3.3-5-2.1-7.6c1.1-2.6,4.3-3.5,7.1-4
				c13.4-2.5,27.3-2.5,40.7-0.1c14.4,2.6,22.4,6.6,37,7.1c29.5,1,55-20.6,84-26.1c18.8-3.5,39.7-0.4,56-10.6
				c-28.5-0.5-53.5,1.7-80.9,9.5c-23.6,6.8-47.1,16.6-71.6,15.2c-26.1-1.6-52.9-15.8-77-5.9c-15.7,6.4-30.5,22.7-46.2,16.4
				c-9.6-3.8-21.2-5.1-31.3-7.7c-21.1-5.5-42.2-11-63.3-16.5C30.6,40.2,53.8,45.1,72.8,50.8z"/>
			<path class="st4" d="M406.1,27.5c-14.2-1.9-28.6,1.2-42,6c-13.4,4.9-26.1,11.5-39.2,17.3c-10.2,4.5-21.1,8.5-32.1,7.2
				c13.5,4.5,28.5,3.8,42.2-0.2c13.7-4,26.9-9.9,40.7-13.3c22.3-5.4,45.6-4.1,68.5-2.8C434.5,35.5,417.7,29,406.1,27.5z"/>
			<path class="st3" d="M401.6,76.3C467,97.4,541,90.6,601.5,57.8c-42.1,17.4-90.7,19-136.1,14.6C440.1,70,426,69,401.6,76.3z"/>
			<g>
				<path class="st5" d="M646.9,101c0,0-20.7,42.9-20.7,50.9s29,40.6,29,40.6s-0.3,25.2,3.6,24.3c3.9-0.9,6.7-23.7,7-27.1
					c0.3-3.4-21.6-44.6-21.6-44.6l10.2-26L646.9,101z"/>
				<path class="st6" d="M813.2,116c-6.1-1.9-14.7-4.1-21.7-4c-61.7,0.1-236,2.9-331.3,28.9c-3.4,0.9-3.1,5.9,0.4,6.4
					c39.4,5.7,160.1,17.9,342.5-10.8c5.8-0.9,10.7-3.6,13.9-7.3C820.9,124.7,818.8,117.7,813.2,116z"/>
				<path class="st6" d="M762.6,130.4c0,0,19.2,25.4,30.4,27.7l-4.8-31.5L762.6,130.4z"/>
				<path class="st7" d="M742.6,130.2c0,0,21,27.1,32.3,29.4l-4.8-31.5L742.6,130.2z"/>
				<path class="st7" d="M813.2,123c2.3,0.7,4.1,2.4,5,4.3c2.1-4.3-0.1-9.9-5-11.4c-6.1-1.9-14.7-4.1-21.7-4
					c-61.7,0.1-236,2.9-331.3,28.9c-3.4,0.9-3.1,5.9,0.4,6.4c0.4,0.1,0.9,0.1,1.3,0.2c95.6-25.6,268.2-28.3,329.5-28.4
					C798.5,118.9,807.1,121.1,813.2,123z"/>
				<path class="st8" d="M633.2,49.3l-8.2,3.5l-13.6,41.4l-23.4,28.2l8.8-0.2c0,0,25.9-22.3,27.9-26.6s15.1-40.1,15.1-40.1
					S641.7,50.6,633.2,49.3z"/>
				<path class="st9" d="M605.6,46.8c-0.3-1.1-0.1-2.2,0-3.2c0.4-2.9,0.7-5.9,1.1-8.8c0.2-1.5,0.4-3.1,1.4-4.3
					c0.6-0.7,1.3-1.2,2.1-1.6c2.3-1.1,5.1-1.4,7.5-0.6c2.4,0.8,4.5,2.8,5.2,5.3c0.3,1.1-2.9,7.6-2.9,8.8c0.1,3.1,5.5,14.8-1.9,10.7
					c-2.2-1.2-2.8-4.6-5.6-5C610,47.8,606.7,51,605.6,46.8z"/>
				<path class="st9" d="M617.3,94.9c0,0-11.5-42.4-3.4-45.5c8.1-3.1,32.5-19.3,36.4,40.6C650.4,89.9,623.3,98,617.3,94.9z"/>
				<path class="st9" d="M614,49.3l-3.1,1.3c-3.2,1.4-5.7,4.1-6.8,7.4l-11.9,36.1l-23.4,28.2l8.8-0.2c0,0,25.9-22.3,27.9-26.6
					c2.1-4.3,15.1-40.1,15.1-40.1S622.5,50.6,614,49.3z"/>
				<path class="st8" d="M655.4,111.4c-0.7-6.6-2.4-18.7-5.1-21.4c-3.7-3.8-33,4.9-33,4.9s-20.7,33.9-20.7,43.1
					c0,9.2,11.1,52.7,11.1,52.7s-1.2,33.6,2.7,32.6c3.9-1.1,12.4-35,10.1-38.1c-6.8-9,0.2-24.5-2.9-38.1c-1.5-6.5-3.8-11.3-3.8-11.3
					l18.6-18.6l19.2-1.1C653.9,115.8,655.7,113.7,655.4,111.4z"/>
				<path class="st5" d="M617,117.6c-2.1,0.5-4.1,1.4-6.2,1.7c-2.3,0.3-4.7,0-7-0.3c-3.9,7.8-7.2,15.3-7.2,18.9
					c0,9.2,11.1,52.7,11.1,52.7s-1.2,33.6,2.7,32.6c3.9-1.1,12.4-35,10.1-38.1c-6.8-9,0.2-24.5-2.9-38.1c-1.5-6.5-3.8-11.3-3.8-11.3
					l17.6-17.5c-0.3,0-0.7,0-1-0.1C625.9,117.7,621.4,116.7,617,117.6z"/>
				<path class="st8" d="M602.1,30.5c1.6,3.3,5.4,5.4,9,5.1c-0.1,0.9-0.3,1.9-0.4,2.8c-0.1,0.7-0.2,1.4,0.1,2c0.3,0.6,1.1,1,1.7,0.6
					c0.5-0.7,0.6-1.6,0.8-2.4c0.3-0.8,1-1.7,1.8-1.5c0.9,0.1,1.3,1.2,1.1,2.1c-0.2,0.8-0.9,1.5-1.6,2c1.9,1.3,4.1,2.2,6.4,2.6
					c1.8-2.8,3.6-5.7,4-8.9c0.4-3.3-0.9-7-4-8.3c-3.3-1.4-7.1,0.5-10.7,0.5c-2.6,0-5.2-1.1-7-2.9c-0.1,1.7,0.6,3.4,1.8,4.5
					c-1-0.6-2-1-3.1-1.2C601.6,28.7,601.5,29.3,602.1,30.5z"/>
			</g>
			<path class="st4" d="M696.3,55.7c-1.3,0-1.3,2,0,2C697.6,57.7,697.6,55.7,696.3,55.7z"/>
			<path class="st4" d="M712,77.7c-0.5-0.5-0.9-0.9-1.4-1.4c-0.9-0.9-2.3,0.5-1.4,1.4c0.5,0.5,0.9,0.9,1.4,1.4
				C711.5,80.1,712.9,78.6,712,77.7z"/>
			<path class="st4" d="M253.4,131.9c-1.3,0-1.3,2,0,2C254.7,133.9,254.7,131.9,253.4,131.9z"/>
			<path class="st4" d="M282,164.6c-1.3,0-1.3,2,0,2C283.3,166.6,283.3,164.6,282,164.6z"/>
			<path class="st4" d="M143,121c-1.3,0-1.3,2,0,2C144.3,123,144.3,121,143,121z"/>
			<path class="st4" d="M114.4,118.3h-2.7c-1.3,0-1.3,2,0,2h2.7C115.7,120.3,115.7,118.3,114.4,118.3z"/>
			<path class="st4" d="M269.8,141.4c-1.3,0-1.3,2,0,2C271,143.4,271,141.4,269.8,141.4z"/>
			<path class="st4" d="M437.4,8c-1.3,0-1.3,2,0,2C438.7,10,438.7,8,437.4,8z"/>
			<path class="st4" d="M466,38c-1.3,0-1.3,2,0,2C467.3,40,467.3,38,466,38z"/>
			<path class="st4" d="M501.4,46.1H500c-1.3,0-1.3,2,0,2h1.4C502.7,48.1,502.7,46.1,501.4,46.1z"/>
			<path class="st4" d="M538.2,51.6c-1.3,0-1.3,2,0,2C539.5,53.6,539.5,51.6,538.2,51.6z"/>
			<path class="st4" d="M479.6,52.9c-1.3,0-1.3,2,0,2C480.9,54.9,480.9,52.9,479.6,52.9z"/>
			<path class="st4" d="M498.7,52.9c-1.3,0-1.3,2,0,2C500,54.9,500,52.9,498.7,52.9z"/>
			<path class="st3" d="M734.8,43.5c-3.2,0-3.2,5,0,5C738,48.5,738,43.5,734.8,43.5z"/>
			<path class="st3" d="M71.9,20l-1.1-1.1c-0.9-0.9-2.6-1-3.5,0c-0.9,1-1,2.5,0,3.5c0.4,0.4,0.8,0.8,1.1,1.1c0.9,0.9,2.6,1,3.5,0
				C72.8,22.5,72.9,21,71.9,20z"/>
			<path class="st3" d="M43.9,97.7c-0.8,0-1.5,0.7-1.5,1.5v1.1c0,0.8,0.7,1.5,1.5,1.5c0.8,0,1.5-0.7,1.5-1.5v-1.1
				C45.5,98.4,44.8,97.6,43.9,97.7z"/>
			<path class="st3" d="M69,112.5c-0.8,0-1.5,0.7-1.5,1.5v2.3c0,0.8,0.7,1.5,1.5,1.5c0.8,0,1.5-0.7,1.5-1.5V114
				C70.5,113.2,69.8,112.4,69,112.5z"/>
			<path class="st3" d="M33.7,143.2h-1.1c-0.8,0-1.5,0.7-1.5,1.5c0,0.8,0.7,1.5,1.5,1.5h1.1c0.8,0,1.5-0.7,1.5-1.5
				C35.2,143.9,34.5,143.2,33.7,143.2z"/>
			<path class="st3" d="M43.9,158c-1.9,0-1.9,3,0,3C45.9,161,45.9,158,43.9,158z"/>
			<path class="st3" d="M110,153.4c-1.9,0-1.9,3,0,3C111.9,156.4,111.9,153.4,110,153.4z"/>
			<path class="st3" d="M151,171.6c-1.9,0-1.9,3,0,3C153,174.6,153,171.6,151,171.6z"/>
			<path class="st3" d="M197.7,171.6c-1.9,0-1.9,3,0,3C199.7,174.6,199.7,171.6,197.7,171.6z"/>
			<path class="st3" d="M235.3,176.2c-1.9,0-1.9,3,0,3C237.2,179.2,237.2,176.2,235.3,176.2z"/>
			<path class="st3" d="M197.7,132.9c-1.9,0-1.9,3,0,3C199.7,135.9,199.7,132.9,197.7,132.9z"/>
			<path class="st3" d="M106.6,105.6c-1.9,0-1.9,3,0,3C108.5,108.6,108.5,105.6,106.6,105.6z"/>
			<path class="st3" d="M105.5,65.8c-1.9,0-1.9,3,0,3C107.4,68.8,107.4,65.8,105.5,65.8z"/>
			<path class="st3" d="M179.5,86.3c-1.9,0-1.9,3,0,3C181.4,89.3,181.4,86.3,179.5,86.3z"/>
			<path class="st3" d="M208,101.1c-1.9,0-1.9,3,0,3C209.9,104.1,209.9,101.1,208,101.1z"/>
			<path class="st3" d="M272.9,104.5c-1.9,0-1.9,3,0,3C274.8,107.5,274.8,104.5,272.9,104.5z"/>
			<path class="st3" d="M230.8,51c-1.9,0-1.9,3,0,3C232.7,54,232.7,51,230.8,51z"/>
			<path class="st3" d="M192,48.7c-1.9,0-1.9,3,0,3C194,51.7,194,48.7,192,48.7z"/>
			<path class="st3" d="M86.1,15.7c-1.9,0-1.9,3,0,3C88,18.7,88,15.7,86.1,15.7z"/>
			<path class="st3" d="M9.8,66.9c-1.9,0-1.9,3,0,3C11.7,69.9,11.7,66.9,9.8,66.9z"/>
			<path class="st3" d="M33.7,118.1c-1.9,0-1.9,3,0,3C35.6,121.1,35.6,118.1,33.7,118.1z"/>
			<path class="st3" d="M140.8,15.7c-1.9,0-1.9,3,0,3C142.7,18.7,142.7,15.7,140.8,15.7z"/>
			<path class="st3" d="M187.5,19.1c-1.9,0-1.9,3,0,3C189.4,22.1,189.4,19.1,187.5,19.1z"/>
			<path class="st3" d="M235.3,23.7c-1.9,0-1.9,3,0,3C237.2,26.7,237.2,23.7,235.3,23.7z"/>
			<path class="st3" d="M277.5,23.7c-1.9,0-1.9,3,0,3C279.4,26.7,279.4,23.7,277.5,23.7z"/>
			<path class="st3" d="M324.2,82.9c-1.9,0-1.9,3,0,3C326.1,85.9,326.1,82.9,324.2,82.9z"/>
			<path class="st3" d="M410.7,80.6c-1.9,0-1.9,3,0,3C412.7,83.6,412.7,80.6,410.7,80.6z"/>
			<path class="st3" d="M382.4,107.5c-0.4-0.6-1.4-1-2.1-0.5c-1.5,1.1-3,2.3-4.6,3.4c-0.6,0.5-1,1.3-0.5,2.1c0.4,0.6,1.4,1,2.1,0.5
				c1.5-1.1,3-2.3,4.6-3.4C382.5,109.1,382.8,108.3,382.4,107.5z"/>
			<path class="st3" d="M320.7,160.3c-1.9,0-1.9,3,0,3C322.7,163.3,322.7,160.3,320.7,160.3z"/>
			<path class="st3" d="M547.4,14.6c-1.9,0-1.9,3,0,3C549.3,17.6,549.3,14.6,547.4,14.6z"/>
			<path class="st3" d="M675,38.5c-1.9,0-1.9,3,0,3C676.9,41.5,676.9,38.5,675,38.5z"/>
			<path class="st3" d="M710.3,56.7c-1.9,0-1.9,3,0,3C712.2,59.7,712.2,56.7,710.3,56.7z"/>
			<path class="st3" d="M687.5,93.1c-1.9,0-1.9,3,0,3C689.4,96.1,689.4,93.1,687.5,93.1z"/>
			<path class="st3" d="M647.6,7.8c-1.9,0-1.9,3,0,3C649.6,10.8,649.6,7.8,647.6,7.8z"/>
			<path class="st3" d="M713.7,18c-1.9,0-1.9,3,0,3C715.6,21,715.6,18,713.7,18z"/>
			<path class="st3" d="M776.4,79.5c-1.9,0-1.9,3,0,3C778.3,82.5,778.3,79.5,776.4,79.5z"/>
			<path class="st3" d="M718.3,189.8c-1.9,0-1.9,3,0,3C720.2,192.8,720.2,189.8,718.3,189.8z"/>
			<path class="st3" d="M579,198.1c-0.7-0.4-1.7-0.2-2.1,0.5c-0.4,0.8-0.8,1.5-1.2,2.3c-0.4,0.7-0.2,1.6,0.5,2.1
				c0.7,0.4,1.7,0.2,2.1-0.5c0.4-0.8,0.8-1.5,1.2-2.3C579.9,199.4,579.8,198.5,579,198.1z"/>
			<path class="st3" d="M465.4,178.5c-1.9,0-1.9,3,0,3C467.3,181.5,467.3,178.5,465.4,178.5z"/>
			<path class="st3" d="M579.3,139.8c-1.9,0-1.9,3,0,3C581.2,142.8,581.2,139.8,579.3,139.8z"/>
			<path class="st3" d="M669.3,146.6c-1.9,0-1.9,3,0,3C671.2,149.6,671.2,146.6,669.3,146.6z"/>
			<path class="st3" d="M532.6,138.6c-1.9,0-1.9,3,0,3C534.5,141.6,534.5,138.6,532.6,138.6z"/>
			<path class="st3" d="M731.9,140.9c-1.9,0-1.9,3,0,3C733.9,143.9,733.9,140.9,731.9,140.9z"/>
			<path class="st3" d="M788.9,171.6c-1.9,0-1.9,3,0,3C790.8,174.6,790.8,171.6,788.9,171.6z"/>
			<path class="st3" d="M836.9,181.5c-0.4-0.7-1.4-1-2.1-0.5c-1.1,0.8-2.3,1.5-3.4,2.3c-0.7,0.4-1,1.3-0.5,2.1
				c0.4,0.7,1.4,1,2.1,0.5c1.1-0.8,2.3-1.5,3.4-2.3C837,183.1,837.3,182.2,836.9,181.5z"/>
			<path class="st3" d="M896.3,178.7c-1.5,0.8-3,1.5-4.6,2.3c-1.7,0.9-0.2,3.5,1.5,2.6c1.5-0.8,3-1.5,4.6-2.3
				C899.6,180.4,898.1,177.8,896.3,178.7z"/>
			<path class="st3" d="M974.5,172.8c-1.9,0-1.9,3,0,3C976.5,175.8,976.5,172.8,974.5,172.8z"/>
			<path class="st3" d="M795.7,164.8c-1.9,0-1.9,3,0,3C797.6,167.8,797.7,164.8,795.7,164.8z"/>
			<path class="st3" d="M924.4,165.9c-1.9,0-1.9,3,0,3C926.4,168.9,926.4,165.9,924.4,165.9z"/>
			<path class="st3" d="M1017.8,154.6c-1.9,0-1.9,3,0,3C1019.8,157.6,1019.8,154.6,1017.8,154.6z"/>
			<path class="st3" d="M1074.8,146.6c-1.9,0-1.9,3,0,3C1076.7,149.6,1076.7,146.6,1074.8,146.6z"/>
			<path class="st3" d="M918.7,69.2c-1.9,0-1.9,3,0,3C920.7,72.2,920.7,69.2,918.7,69.2z"/>
			<path class="st3" d="M898.2,35.1c-1.9,0-1.9,3,0,3C900.2,38.1,900.2,35.1,898.2,35.1z"/>
			<path class="st3" d="M1047.4,39.6c-1.9,0-1.9,3,0,3C1049.4,42.6,1049.4,39.6,1047.4,39.6z"/>
			<path class="st3" d="M1099.8,49.9c-1.9,0-1.9,3,0,3C1101.8,52.9,1101.8,49.9,1099.8,49.9z"/>
		</g>
		<linearGradient id="SVGID_1_" gradientUnits="userSpaceOnUse" x1="386.0919" y1="57.1935" x2="232.3025" y2="763.4853">
			<stop  offset="0" style="stop-color:#61E1FF"/>
			<stop  offset="3.973174e-02" style="stop-color:#5AD8F9"/>
			<stop  offset="0.2129" style="stop-color:#42B8E1"/>
			<stop  offset="0.3923" style="stop-color:#2F9FCE"/>
			<stop  offset="0.5783" style="stop-color:#218DC1"/>
			<stop  offset="0.7749" style="stop-color:#1982B9"/>
			<stop  offset="1" style="stop-color:#167FB6"/>
		</linearGradient>
		<polygon class="st10" points="439.2,81.4 127.1,786.8 293.8,742.8 481.4,79.4 		"/>
		<linearGradient id="SVGID_2_" gradientUnits="userSpaceOnUse" x1="742.1114" y1="126.6825" x2="611.9983" y2="724.239">
			<stop  offset="0" style="stop-color:#61E1FF"/>
			<stop  offset="3.973174e-02" style="stop-color:#5AD8F9"/>
			<stop  offset="0.2129" style="stop-color:#42B8E1"/>
			<stop  offset="0.3923" style="stop-color:#2F9FCE"/>
			<stop  offset="0.5783" style="stop-color:#218DC1"/>
			<stop  offset="0.7749" style="stop-color:#1982B9"/>
			<stop  offset="1" style="stop-color:#167FB6"/>
		</linearGradient>
		<polygon class="st11" points="498.5,83.6 614.9,764 856.3,764 511.6,77.8 		"/>
		<linearGradient id="SVGID_3_" gradientUnits="userSpaceOnUse" x1="387.6635" y1="147.8724" x2="257.5504" y2="745.4289">
			<stop  offset="0" style="stop-color:#61E1FF"/>
			<stop  offset="3.973174e-02" style="stop-color:#5AD8F9"/>
			<stop  offset="0.2129" style="stop-color:#42B8E1"/>
			<stop  offset="0.3923" style="stop-color:#2F9FCE"/>
			<stop  offset="0.5783" style="stop-color:#218DC1"/>
			<stop  offset="0.7749" style="stop-color:#1982B9"/>
			<stop  offset="1" style="stop-color:#167FB6"/>
		</linearGradient>
		<polygon class="st12" points="141.9,97.7 264,786 505.5,786 160.7,99.7 		"/>
		<linearGradient id="SVGID_4_" gradientUnits="userSpaceOnUse" x1="1244.5618" y1="155.6864" x2="1114.4486" y2="753.2429">
			<stop  offset="0" style="stop-color:#61E1FF"/>
			<stop  offset="3.973174e-02" style="stop-color:#5AD8F9"/>
			<stop  offset="0.2129" style="stop-color:#42B8E1"/>
			<stop  offset="0.3923" style="stop-color:#2F9FCE"/>
			<stop  offset="0.5783" style="stop-color:#218DC1"/>
			<stop  offset="0.7749" style="stop-color:#1982B9"/>
			<stop  offset="1" style="stop-color:#167FB6"/>
		</linearGradient>
		<polygon class="st13" points="998.8,105.5 1120.9,793.8 1362.4,793.8 1017.6,107.5 		"/>
		<linearGradient id="SVGID_5_" gradientUnits="userSpaceOnUse" x1="196.358" y1="104.1217" x2="57.0922" y2="743.7126">
			<stop  offset="0" style="stop-color:#61E1FF"/>
			<stop  offset="3.973174e-02" style="stop-color:#5AD8F9"/>
			<stop  offset="0.2129" style="stop-color:#42B8E1"/>
			<stop  offset="0.3923" style="stop-color:#2F9FCE"/>
			<stop  offset="0.5783" style="stop-color:#218DC1"/>
			<stop  offset="0.7749" style="stop-color:#1982B9"/>
			<stop  offset="1" style="stop-color:#167FB6"/>
		</linearGradient>
		<polygon class="st14" points="69,77.8 58.8,786 180.9,786 83.7,84.4 		"/>
		<linearGradient id="SVGID_6_" gradientUnits="userSpaceOnUse" x1="983.101" y1="102.293" x2="847.3239" y2="725.8618">
			<stop  offset="0" style="stop-color:#61E1FF"/>
			<stop  offset="3.973174e-02" style="stop-color:#5AD8F9"/>
			<stop  offset="0.2129" style="stop-color:#42B8E1"/>
			<stop  offset="0.3923" style="stop-color:#2F9FCE"/>
			<stop  offset="0.5783" style="stop-color:#218DC1"/>
			<stop  offset="0.7749" style="stop-color:#1982B9"/>
			<stop  offset="1" style="stop-color:#167FB6"/>
		</linearGradient>
		<polygon class="st15" points="944.9,97 737.8,742.8 944.9,764 967.5,100.2 		"/>
		<linearGradient id="SVGID_7_" gradientUnits="userSpaceOnUse" x1="1170.8141" y1="117.1212" x2="1163.9629" y2="640.5522">
			<stop  offset="0" style="stop-color:#61E1FF"/>
			<stop  offset="3.973174e-02" style="stop-color:#5AD8F9"/>
			<stop  offset="0.2129" style="stop-color:#42B8E1"/>
			<stop  offset="0.3923" style="stop-color:#2F9FCE"/>
			<stop  offset="0.5783" style="stop-color:#218DC1"/>
			<stop  offset="0.7749" style="stop-color:#1982B9"/>
			<stop  offset="1" style="stop-color:#167FB6"/>
		</linearGradient>
		<polygon class="st16" points="1173.4,145.8 1067.4,710.9 1258.6,720.2 1191.8,142.4 		"/>
		<path class="st2" d="M495.3,780.8c-1.9,0-1.9,3,0,3C497.2,783.8,497.2,780.8,495.3,780.8z"/>
		<path class="st2" d="M133.3,757.2c-1.9,0-1.9,3,0,3C135.2,760.2,135.2,757.2,133.3,757.2z"/>
		<path class="st2" d="M180.4,620.1c-1.9,0-1.9,3,0,3C182.3,623.1,182.3,620.1,180.4,620.1z"/>
		<path class="st2" d="M248.9,584.3c-3.9,0-3.9,6,0,6C252.8,590.3,252.8,584.3,248.9,584.3z"/>
		<path class="st2" d="M90.4,725.7c-3.9,0-3.9,6,0,6C94.3,731.7,94.3,725.7,90.4,725.7z"/>
		<path class="st2" d="M51.8,787.9c-3.9,0-3.9,6,0,6C55.7,793.9,55.7,787.9,51.8,787.9z"/>
		<path class="st2" d="M272.5,792.1c-3.9,0-3.9,6,0,6C276.4,798.1,276.4,792.1,272.5,792.1z"/>
		<path class="st2" d="M163.2,507.2c-3.9,0-3.9,6,0,6C167.1,513.2,167.1,507.2,163.2,507.2z"/>
		<path class="st2" d="M165.8,465.9c-0.7-1.4-1.4-2.9-2.1-4.3c-0.7-1.4-2.8-1.9-4.1-1.1c-1.4,0.9-1.8,2.6-1.1,4.1
			c0.7,1.4,1.4,2.9,2.1,4.3c0.7,1.4,2.8,1.9,4.1,1.1C166.2,469,166.6,467.4,165.8,465.9z"/>
		<path class="st2" d="M126.8,359.4c-3.9,0-3.9,6,0,6C130.7,365.4,130.7,359.4,126.8,359.4z"/>
		<path class="st2" d="M49.7,278c-3.9,0-3.9,6,0,6C53.6,284,53.6,278,49.7,278z"/>
		<path class="st2" d="M150.4,215.9c-3.9,0-3.9,6,0,6C154.2,221.9,154.3,215.9,150.4,215.9z"/>
		<path class="st2" d="M203.9,342.3h-2.1c-1.6,0-3.1,1.4-3,3c0.1,1.6,1.3,3,3,3h2.1c1.6,0,3.1-1.4,3-3
			C206.9,343.6,205.6,342.3,203.9,342.3z"/>
		<path class="st2" d="M71.1,612.2c-3.9,0-3.9,6,0,6C75,618.2,75,612.2,71.1,612.2z"/>
		<path class="st2" d="M79.7,753.6c-3.9,0-3.9,6,0,6C83.6,759.6,83.6,753.6,79.7,753.6z"/>
		<path class="st2" d="M317.5,832.8c-3.9,0-3.9,6,0,6C321.3,838.8,321.4,832.8,317.5,832.8z"/>
		<path class="st2" d="M538.1,646.5c-3.9,0-3.9,6,0,6C542,652.5,542,646.5,538.1,646.5z"/>
		<path class="st2" d="M508.1,526.5c-3.9,0-3.9,6,0,6C512,532.5,512,526.5,508.1,526.5z"/>
		<path class="st2" d="M482.4,468.7c-3.9,0-3.9,6,0,6C486.3,474.7,486.3,468.7,482.4,468.7z"/>
		<path class="st2" d="M338.9,341c-1.2-1.1-3.1-1.2-4.2,0c-0.7,0.7-1.4,1.4-2.1,2.1c-1.1,1.1-1.2,3.1,0,4.2c1.2,1.1,3.1,1.2,4.2,0
			l2.1-2.1C340,344.1,340.1,342.1,338.9,341z"/>
		<path class="st2" d="M304.6,205.2c-3.9,0-3.9,6,0,6C308.5,211.2,308.5,205.2,304.6,205.2z"/>
		<path class="st2" d="M493.1,305.9c-3.9,0-3.9,6,0,6C497,311.9,497,305.9,493.1,305.9z"/>
		<path class="st2" d="M527.4,391.5c-3.9,0-3.9,6,0,6C531.3,397.5,531.3,391.5,527.4,391.5z"/>
		<path class="st2" d="M769.5,348.7c-3.9,0-3.9,6,0,6C773.4,354.7,773.4,348.7,769.5,348.7z"/>
		<path class="st2" d="M861.6,350.8c-3.9,0-3.9,6,0,6C865.5,356.8,865.5,350.8,861.6,350.8z"/>
		<path class="st2" d="M975.2,494.4c-3.9,0-3.9,6,0,6C979,500.4,979,494.4,975.2,494.4z"/>
		<path class="st2" d="M1028.7,582.2c-3.9,0-3.9,6,0,6C1032.6,588.2,1032.6,582.2,1028.7,582.2z"/>
		<path class="st2" d="M1020.1,685c-3.9,0-3.9,6,0,6C1024,691,1024,685,1020.1,685z"/>
		<path class="st2" d="M1142.2,790c-3.9,0-3.9,6,0,6C1146.1,796,1146.1,790,1142.2,790z"/>
		<path class="st2" d="M1309.3,700c-3.9,0-3.9,6,0,6C1313.2,706,1313.2,700,1309.3,700z"/>
		<path class="st2" d="M1281.5,500.8c-1.6,0.1-3,1.3-3,3v4.3c0,1.6,1.4,3.1,3,3c1.6-0.1,3-1.3,3-3v-4.3
			C1284.5,502.2,1283.1,500.7,1281.5,500.8z"/>
		<path class="st2" d="M1265.6,351.7v6.4c0,3.9,6,3.9,6,0v-6.4C1271.6,347.8,1265.6,347.8,1265.6,351.7z"/>
		<path class="st2" d="M1257.9,209.5c-3.9,0-3.9,6,0,6C1261.8,215.5,1261.8,209.5,1257.9,209.5z"/>
		<path class="st2" d="M1063,252.3c-3.9,0-3.9,6,0,6C1066.8,258.3,1066.9,252.3,1063,252.3z"/>
		<path class="st2" d="M949.4,293c-3.9,0-3.9,6,0,6C953.3,299,953.3,293,949.4,293z"/>
		<path class="st2" d="M733.1,280.1c-3.9,0-3.9,6,0,6C736.9,286.1,736.9,280.1,733.1,280.1z"/>
		<path class="st2" d="M755.9,844.6c-3.9,0-3.9,6,0,6C759.7,850.6,759.8,844.6,755.9,844.6z"/>
		<path class="st2" d="M489.3,888.7c-0.9-1.5-2.7-1.8-4.1-1.1l-5,2.5c-1.4,0.7-1.9,2.8-1.1,4.1c0.9,1.5,2.7,1.8,4.1,1.1
			c1.7-0.8,3.3-1.7,5-2.5C489.6,892.1,490,890.1,489.3,888.7z"/>
		<path class="st2" d="M172.3,884.5c-3.9,0-3.9,6,0,6C176.2,890.5,176.2,884.5,172.3,884.5z"/>
		<path class="st2" d="M112.5,894.5c-3.9,0-3.9,6,0,6C116.4,900.5,116.4,894.5,112.5,894.5z"/>
		<path class="st2" d="M506.5,902c-3.9,0-3.9,6,0,6C510.4,908,510.4,902,506.5,902z"/>
		<path class="st2" d="M693.5,907c-3.9,0-3.9,6,0,6C697.4,913,697.4,907,693.5,907z"/>
		<path class="st2" d="M1010.2,887c-3.9,0-3.9,6,0,6C1014.1,893,1014.1,887,1010.2,887z"/>
		<path class="st2" d="M925.5,772.3c-3.9,0-3.9,6,0,6C929.3,778.3,929.3,772.3,925.5,772.3z"/>
		<path class="st2" d="M997.8,712.5c-3.9,0-3.9,6,0,6C1001.6,718.5,1001.6,712.5,997.8,712.5z"/>
		<path class="st2" d="M1015.2,729.9c-3.9,0-3.9,6,0,6C1019.1,735.9,1019.1,729.9,1015.2,729.9z"/>
		<path class="st2" d="M1040.2,824.7c-3.9,0-3.9,6,0,6C1044,830.7,1044,824.7,1040.2,824.7z"/>
		<path class="st2" d="M1162.4,857.1c-3.9,0-3.9,6,0,6C1166.2,863.1,1166.2,857.1,1162.4,857.1z"/>
		<path class="st2" d="M1256.8,798.1c-0.8-0.8-1.7-1.7-2.5-2.5c-1.1-1.1-3.1-1.2-4.2,0c-1.1,1.2-1.2,3.1,0,4.2
			c0.8,0.8,1.7,1.7,2.5,2.5c1.1,1.1,3.1,1.2,4.2,0C1257.9,801.2,1257.9,799.3,1256.8,798.1z"/>
		<path class="st2" d="M1189.8,690c-3.9,0-3.9,6,0,6C1193.7,696,1193.7,690,1189.8,690z"/>
		<path class="st2" d="M1239.7,582.8c-3.9,0-3.9,6,0,6C1243.5,588.8,1243.5,582.8,1239.7,582.8z"/>
		<path class="st2" d="M1294,398.8v12.5c0,3.9,6,3.9,6,0v-12.5C1300,394.9,1294,394.9,1294,398.8z"/>
		<path class="st2" d="M1294.5,236.1c-3.9,0-3.9,6,0,6C1298.4,242.1,1298.4,236.1,1294.5,236.1z"/>
		<path class="st2" d="M1361.4,436.2v7.5c0,3.9,6,3.9,6,0v-7.5C1367.4,432.3,1361.4,432.3,1361.4,436.2z"/>
		<path class="st2" d="M1392.2,674.8c-0.8-2.5-1.7-5-2.5-7.5c-1.2-3.6-7-2.1-5.8,1.6c0.8,2.5,1.7,5,2.5,7.5
			C1387.6,680,1393.4,678.4,1392.2,674.8z"/>
		<path class="st2" d="M1361.9,879.5c-3.9,0-3.9,6,0,6C1365.7,885.5,1365.7,879.5,1361.9,879.5z"/>
		<path class="st2" d="M1304.5,921.9c-3.9,0-3.9,6,0,6C1308.4,927.9,1308.4,921.9,1304.5,921.9z"/>
		<path class="st2" d="M1027.7,904.5c-3.9,0-3.9,6,0,6C1031.6,910.5,1031.6,904.5,1027.7,904.5z"/>
		<path class="st2" d="M813.2,919.4c-3.9,0-3.9,6,0,6C817.1,925.4,817.1,919.4,813.2,919.4z"/>
		<path class="st2" d="M591.3,919.4c-3.9,0-3.9,6,0,6C595.2,925.4,595.2,919.4,591.3,919.4z"/>
		<path class="st2" d="M344.4,912c-3.9,0-3.9,6,0,6C348.3,918,348.3,912,344.4,912z"/>
		<path class="st2" d="M72.2,917.8c-1.2-1.1-3.1-1.2-4.2,0c-0.8,0.8-1.7,1.7-2.5,2.5c-1.1,1.1-1.2,3.1,0,4.2c1.2,1.1,3.1,1.2,4.2,0
			c0.8-0.8,1.7-1.7,2.5-2.5C73.3,921,73.4,918.9,72.2,917.8z"/>
		<path class="st2" d="M30.2,804.7c-3.9,0-3.9,6,0,6C34.1,810.7,34.1,804.7,30.2,804.7z"/>
		<path class="st2" d="M212.2,807.2c-3.9,0-3.9,6,0,6C216.1,813.2,216.1,807.2,212.2,807.2z"/>
		<path class="st2" d="M366.9,672.6c-3.9,0-3.9,6,0,6C370.7,678.6,370.7,672.6,366.9,672.6z"/>
		<path class="st2" d="M496.5,650.1c-3.9,0-3.9,6,0,6C500.4,656.1,500.4,650.1,496.5,650.1z"/>
		<path class="st2" d="M431.7,393.3c-3.9,0-3.9,6,0,6C435.6,399.3,435.6,393.3,431.7,393.3z"/>
		<path class="st2" d="M302,261.1c-3.9,0-3.9,6,0,6C305.9,267.1,305.9,261.1,302,261.1z"/>
		<path class="st2" d="M137.4,266.1c-1.6,0.1-3,1.3-3,3v2.5c0,1.6,1.4,3.1,3,3c1.6-0.1,3-1.3,3-3v-2.5
			C140.4,267.5,139,266,137.4,266.1z"/>
		<path class="st2" d="M147.4,435.7c-3.9,0-3.9,6,0,6C151.3,441.7,151.3,435.7,147.4,435.7z"/>
		<path class="st2" d="M486.6,652.6c-3.9,0-3.9,6,0,6C490.4,658.6,490.4,652.6,486.6,652.6z"/>
		<path class="st2" d="M718.5,527.9c-3.9,0-3.9,6,0,6C722.3,533.9,722.3,527.9,718.5,527.9z"/>
		<path class="st2" d="M813.2,271.1c-3.9,0-3.9,6,0,6C817.1,277.1,817.1,271.1,813.2,271.1z"/>
		<path class="st2" d="M970.3,248.6c-3.9,0-3.9,6,0,6C974.2,254.6,974.2,248.6,970.3,248.6z"/>
		<path class="st2" d="M1179.8,388.3c-3.9,0-3.9,6,0,6C1183.7,394.3,1183.7,388.3,1179.8,388.3z"/>
		<path class="st2" d="M1274.3,425.4c-0.8,5-1.7,10-2.5,15c-0.6,3.8,5.1,5.4,5.8,1.6c0.8-5,1.7-10,2.5-15
			C1280.8,423.2,1275,421.6,1274.3,425.4z"/>
		<path class="st2" d="M1257.1,238.6c-3.9,0-3.9,6,0,6C1261,244.6,1261,238.6,1257.1,238.6z"/>
		<path class="st2" d="M758.4,278.5c-3.9,0-3.9,6,0,6C762.2,284.5,762.2,278.5,758.4,278.5z"/>
		<path class="st2" d="M571.3,278.5c-3.9,0-3.9,6,0,6C575.2,284.5,575.2,278.5,571.3,278.5z"/>
		<path class="st2" d="M277.1,228.7c-3.9,0-3.9,6,0,6C280.9,234.7,280.9,228.7,277.1,228.7z"/>
		<path class="st2" d="M209.7,258.6c-3.9,0-3.9,6,0,6C213.6,264.6,213.6,258.6,209.7,258.6z"/>
		<path class="st2" d="M905.5,907c-3.9,0-3.9,6,0,6C909.4,913,909.4,907,905.5,907z"/>
		<path class="st2" d="M1097.5,916.9h-2.5c-1.6,0-3.1,1.4-3,3c0.1,1.6,1.3,3,3,3h2.5c1.6,0,3.1-1.4,3-3
			C1100.5,918.3,1099.2,916.9,1097.5,916.9z"/>
		<path class="st2" d="M1257.1,887c-1.6,0.1-3,1.3-3,3v2.5c0,1.6,1.4,3.1,3,3c1.6-0.1,3-1.3,3-3V890
			C1260.1,888.5,1258.7,886.9,1257.1,887z"/>
		<path class="st2" d="M1219.7,789.8c-3.9,0-3.9,6,0,6C1223.6,795.8,1223.6,789.8,1219.7,789.8z"/>
		<path class="st2" d="M773.3,647.6c-3.9,0-3.9,6,0,6C777.2,653.6,777.2,647.6,773.3,647.6z"/>
		<path class="st2" d="M708.5,630.2c-3.9,0-3.9,6,0,6C712.4,636.2,712.4,630.2,708.5,630.2z"/>
		<path class="st2" d="M696,615.2c-3.9,0-3.9,6,0,6C699.9,621.2,699.9,615.2,696,615.2z"/>
		<path class="st2" d="M678.6,597.7c-3.9,0-3.9,6,0,6C682.4,603.7,682.4,597.7,678.6,597.7z"/>
		<path class="st2" d="M658.6,555.4h-2.5c-1.6,0-3.1,1.4-3,3c0.1,1.6,1.3,3,3,3h2.5c1.6,0,3.1-1.4,3-3
			C661.6,556.7,660.3,555.4,658.6,555.4z"/>
		<path class="st2" d="M623.7,517.9c-3.9,0-3.9,6,0,6C627.6,523.9,627.6,517.9,623.7,517.9z"/>
		<path class="st2" d="M444.2,475.6c-3.9,0-3.9,6,0,6C448,481.6,448,475.6,444.2,475.6z"/>
		<path class="st2" d="M882.7,269.4c-0.8-0.8-1.7-1.7-2.5-2.5c-1.1-1.1-3.1-1.2-4.2,0c-1.1,1.2-1.2,3.1,0,4.2
			c0.8,0.8,1.7,1.7,2.5,2.5c1.1,1.1,3.1,1.2,4.2,0C883.8,272.5,883.9,270.6,882.7,269.4z"/>
		<path class="st2" d="M835.7,311c-3.9,0-3.9,6,0,6C839.5,317,839.6,311,835.7,311z"/>
		<path class="st2" d="M825.7,360.8c-3.9,0-3.9,6,0,6C829.6,366.8,829.6,360.8,825.7,360.8z"/>
		<path class="st2" d="M810.7,433.2h-2.5c-1.6,0-3.1,1.4-3,3c0.1,1.6,1.3,3,3,3h2.5c1.6,0,3.1-1.4,3-3
			C813.7,434.5,812.4,433.2,810.7,433.2z"/>
		<path class="st2" d="M837.8,491.4c-1.2-1.1-3.1-1.2-4.2,0l-2.5,2.5c-1.1,1.1-1.2,3.1,0,4.2c1.2,1.1,3.1,1.2,4.2,0l2.5-2.5
			C838.9,494.5,839,492.5,837.8,491.4z"/>
		<path class="st2" d="M808.3,567.8c-3.9,0-3.9,6,0,6C812.1,573.8,812.1,567.8,808.3,567.8z"/>
		<path class="st2" d="M833.2,670.1c-3.9,0-3.9,6,0,6C837.1,676.1,837.1,670.1,833.2,670.1z"/>
		<path class="st2" d="M740.9,799.7c-3.9,0-3.9,6,0,6C744.8,805.7,744.8,799.7,740.9,799.7z"/>
		<path class="st2" d="M1037.7,844.6c-3.9,0-3.9,6,0,6C1041.5,850.6,1041.5,844.6,1037.7,844.6z"/>
	</g>
	<path class="st17" d="M324.4,775.9c2.3-1.5,5.2-3.6,7.5-5c-4.4,0.7-8.8,1.7-13.2,2.6c-6.8-2.1-12.7-4.5-19.1-5.8
		c0.1-0.1,0.1-0.2,0.1-0.3c0.1-0.7-0.6-1.4-0.5-2.2c0.1-0.9,1.3-1.4,1.6-2.3c-2.7-0.3-5.5,0.3-8.1,1c-1.9,0.5-3.8,1-5.6,1.8
		c-0.7,0.3-1.8,0.9-2.7,1.6c-5.3,0.6-10.5,1.8-15.4,3.7c4.6,2.3,9.4,4,14.4,5.3c2.8,2.3,6.3,4,9.9,4.8c2.1,0.5,4.3,0.6,6.4,1.3
		c-1.7-1.2-3.4-2.3-5-3.5c-0.4-0.3-0.8-0.5-1.1-0.9c7.6,0.8,15.3,0.4,22.7-1.2c4.6-1,8.7,3,12.2,6.2
		C327.2,780.9,325.7,778.2,324.4,775.9z"/>
	<path class="st17" d="M302.8,286c2.3-1.5,5.2-3.6,7.5-5c-4.4,0.7-8.8,1.7-13.2,2.6c-6.8-2.1-12.7-4.6-19.1-5.8
		c0.1-0.1,0.1-0.2,0.1-0.3c0.1-0.7-0.6-1.4-0.5-2.2c0.1-0.9,1.3-1.4,1.6-2.3c-2.7-0.3-5.5,0.3-8.1,1c-1.9,0.5-3.8,1-5.6,1.8
		c-0.7,0.3-1.8,0.9-2.7,1.6c-5.3,0.6-10.5,1.8-15.4,3.7c4.6,2.3,9.4,4,14.4,5.3c2.8,2.3,6.3,4,9.9,4.8c2.1,0.5,4.3,0.6,6.4,1.3
		c-1.7-1.2-3.4-2.3-5-3.5c-0.4-0.3-0.8-0.5-1.1-0.9c7.6,0.8,15.3,0.4,22.7-1.2c4.6-1,8.7,3,12.2,6.2
		C305.5,291,304.1,288.3,302.8,286z"/>
	<path class="st17" d="M131.9,523.8c2.3-1.5,5.2-3.6,7.5-5c-4.4,0.7-8.8,1.7-13.2,2.6c-6.8-2.1-12.7-4.5-19.1-5.8
		c0.1-0.1,0.1-0.2,0.1-0.3c0.1-0.7-0.6-1.4-0.5-2.2c0.1-0.9,1.3-1.4,1.6-2.3c-2.7-0.3-5.5,0.3-8.1,1c-1.9,0.5-3.8,1-5.6,1.8
		c-0.7,0.3-1.8,0.9-2.7,1.6c-5.3,0.6-10.5,1.8-15.4,3.7c4.6,2.3,9.4,4,14.4,5.3c2.8,2.3,6.3,4,9.9,4.8c2.1,0.5,4.3,0.6,6.4,1.3
		c-1.7-1.2-3.4-2.3-5-3.5c-0.4-0.3-0.8-0.5-1.1-0.9c7.6,0.8,15.3,0.4,22.7-1.2c4.6-1,8.7,3,12.2,6.2
		C134.7,528.8,133.2,526.1,131.9,523.8z"/>
	<g>
		<path class="st17" d="M1022.7,407.8c1.7-2.3,3.9-5.4,5.7-7.6c-4,2.1-8,4.6-11.8,6.9c-7.1,0-13.4-0.7-19.9,0.1c0-0.1,0-0.2,0-0.4
			c-0.1-0.8-1-1.3-1.1-2.1c-0.2-1,0.8-1.8,0.8-2.8c-2.7,0.5-5.1,2.1-7.5,3.6c-1.7,1.1-3.4,2.2-4.8,3.6c-0.6,0.6-1.4,1.5-2.1,2.5
			c-4.9,2.3-9.5,5.2-13.7,8.7c5,0.9,10.2,1.2,15.3,0.9c3.4,1.5,7.2,2.2,10.9,1.9c2.2-0.2,4.3-0.7,6.5-0.7c-1.9-0.7-3.9-1.3-5.8-2
			c-0.5-0.2-0.9-0.3-1.3-0.6c7.5-1.6,14.8-4.4,21.3-8.4c4.1-2.5,9.2,0.3,13.5,2.6C1026.8,412.1,1024.6,409.8,1022.7,407.8z"/>
		<path class="st17" d="M1064.3,440.3c1.7-2.3,3.9-5.4,5.7-7.6c-4,2.1-8,4.6-11.8,6.9c-7.1,0-13.4-0.7-19.9,0.1c0-0.1,0-0.2,0-0.4
			c-0.1-0.8-1-1.3-1.1-2.1c-0.2-1,0.8-1.8,0.8-2.8c-2.7,0.5-5.1,2.1-7.5,3.6c-1.7,1.1-3.4,2.2-4.8,3.6c-0.6,0.6-1.4,1.5-2.1,2.5
			c-4.9,2.3-9.5,5.2-13.7,8.7c5,0.9,10.2,1.2,15.3,0.9c3.4,1.5,7.2,2.2,10.9,1.9c2.2-0.2,4.3-0.7,6.5-0.7c-1.9-0.7-3.9-1.3-5.8-2
			c-0.5-0.2-0.9-0.3-1.3-0.6c7.5-1.6,14.8-4.4,21.3-8.4c4.1-2.5,9.2,0.3,13.5,2.6C1068.4,444.5,1066.3,442.2,1064.3,440.3z"/>
		<path class="st17" d="M1073.1,375.4c1.7-2.3,3.9-5.4,5.7-7.6c-4,2.1-8,4.6-11.8,6.9c-7.1,0-13.4-0.7-19.9,0.1c0-0.1,0-0.2,0-0.4
			c-0.1-0.8-1-1.3-1.1-2.1c-0.2-1,0.8-1.8,0.8-2.8c-2.7,0.5-5.1,2.1-7.5,3.6c-1.7,1.1-3.4,2.2-4.8,3.6c-0.6,0.6-1.4,1.5-2.1,2.5
			c-4.9,2.3-9.5,5.2-13.7,8.7c5,0.9,10.2,1.2,15.3,0.9c3.4,1.5,7.2,2.2,10.9,1.9c2.2-0.2,4.3-0.7,6.5-0.7c-1.9-0.7-3.9-1.3-5.8-2
			c-0.5-0.2-0.9-0.3-1.3-0.6c7.5-1.6,14.8-4.4,21.3-8.4c4.1-2.5,9.2,0.3,13.5,2.6C1077.1,379.6,1075,377.3,1073.1,375.4z"/>
		<path class="st17" d="M1122.6,407.8c1.7-2.3,3.9-5.4,5.7-7.6c-4,2.1-8,4.6-11.8,6.9c-7.1,0-13.4-0.7-19.9,0.1c0-0.1,0-0.2,0-0.4
			c-0.1-0.8-1-1.3-1.1-2.1c-0.2-1,0.8-1.8,0.8-2.8c-2.7,0.5-5.1,2.1-7.5,3.6c-1.7,1.1-3.4,2.2-4.8,3.6c-0.6,0.6-1.4,1.5-2.1,2.5
			c-4.9,2.3-9.5,5.2-13.7,8.7c5,0.9,10.2,1.2,15.3,0.9c3.4,1.5,7.2,2.2,10.9,1.9c2.2-0.2,4.3-0.7,6.5-0.7c-1.9-0.7-3.9-1.3-5.8-2
			c-0.5-0.2-0.9-0.3-1.3-0.6c7.5-1.6,14.8-4.4,21.3-8.4c4.1-2.5,9.2,0.3,13.5,2.6C1126.6,412.1,1124.5,409.8,1122.6,407.8z"/>
		<path class="st17" d="M1163.5,353c1.7-2.3,3.9-5.4,5.7-7.6c-4,2.1-8,4.6-11.8,6.9c-7.1,0-13.4-0.7-19.9,0.1c0-0.1,0-0.2,0-0.4
			c-0.1-0.8-1-1.3-1.1-2.1c-0.2-1,0.8-1.8,0.8-2.8c-2.7,0.5-5.1,2.1-7.5,3.6c-1.7,1.1-3.4,2.2-4.8,3.6c-0.6,0.6-1.4,1.5-2.1,2.5
			c-4.9,2.3-9.5,5.2-13.7,8.7c5,0.9,10.2,1.2,15.3,0.9c3.4,1.5,7.2,2.2,10.9,1.9c2.2-0.2,4.3-0.7,6.5-0.7c-1.9-0.7-3.9-1.3-5.8-2
			c-0.5-0.2-0.9-0.3-1.3-0.6c7.5-1.6,14.8-4.4,21.3-8.4c4.1-2.5,9.2,0.3,13.5,2.6C1167.6,357.2,1165.4,354.9,1163.5,353z"/>
		<path class="st17" d="M1211.1,401.1c1.7-2.3,3.9-5.4,5.7-7.6c-4,2.1-8,4.6-11.8,6.9c-7.1,0-13.4-0.7-19.9,0.1c0-0.1,0-0.2,0-0.4
			c-0.1-0.8-1-1.3-1.1-2.1c-0.2-1,0.8-1.8,0.8-2.8c-2.7,0.5-5.1,2.1-7.5,3.6c-1.7,1.1-3.4,2.2-4.8,3.6c-0.6,0.6-1.4,1.5-2.1,2.5
			c-4.9,2.3-9.5,5.2-13.7,8.7c5,0.9,10.2,1.2,15.3,0.9c3.4,1.5,7.2,2.2,10.9,1.9c2.2-0.2,4.3-0.7,6.5-0.7c-1.9-0.7-3.9-1.3-5.8-2
			c-0.5-0.2-0.9-0.3-1.3-0.6c7.5-1.6,14.8-4.4,21.3-8.4c4.1-2.5,9.2,0.3,13.5,2.6C1215.1,405.3,1213,403.1,1211.1,401.1z"/>
		<path class="st17" d="M1163.5,445.8c1.7-2.3,3.9-5.4,5.7-7.6c-4,2.1-8,4.6-11.8,6.9c-7.1,0-13.4-0.7-19.9,0.1c0-0.1,0-0.2,0-0.4
			c-0.1-0.8-1-1.3-1.1-2.1c-0.2-1,0.8-1.8,0.8-2.8c-2.7,0.5-5.1,2.1-7.5,3.6c-1.7,1.1-3.4,2.2-4.8,3.6c-0.6,0.6-1.4,1.5-2.1,2.5
			c-4.9,2.3-9.5,5.2-13.7,8.7c5,0.9,10.2,1.2,15.3,0.9c3.4,1.5,7.2,2.2,10.9,1.9c2.2-0.2,4.3-0.7,6.5-0.7c-1.9-0.7-3.9-1.3-5.8-2
			c-0.5-0.2-0.9-0.3-1.3-0.6c7.5-1.6,14.8-4.4,21.3-8.4c4.1-2.5,9.2,0.3,13.5,2.6C1167.6,450,1165.4,447.7,1163.5,445.8z"/>
		<path class="st17" d="M1252.5,418.1c1.7-2.1,3.9-5,5.7-7c-4,1.9-8,4.2-11.8,6.4c-7.1,0-13.4-0.6-19.9,0.1c0-0.1,0-0.2,0-0.3
			c-0.1-0.7-1-1.2-1.1-1.9c-0.2-0.9,0.8-1.7,0.8-2.6c-2.7,0.5-5.1,1.9-7.5,3.3c-1.7,1-3.4,2-4.8,3.4c-0.6,0.5-1.4,1.4-2.1,2.3
			c-4.9,2.1-9.5,4.8-13.7,8c5,0.8,10.2,1.1,15.3,0.9c3.4,1.4,7.2,2,10.9,1.7c2.2-0.2,4.3-0.6,6.5-0.6c-1.9-0.6-3.9-1.2-5.8-1.8
			c-0.5-0.1-0.9-0.3-1.3-0.5c7.5-1.5,14.8-4.1,21.3-7.8c4.1-2.3,9.2,0.3,13.5,2.4C1256.6,422,1254.4,419.9,1252.5,418.1z"/>
		<path class="st2" d="M1182.5,359.7c-1.6,0.1-3,1.3-3,3v2.1c0,1.6,1.4,3.1,3,3c1.6-0.1,3-1.3,3-3v-2.1
			C1185.5,361.1,1184.1,359.6,1182.5,359.7z"/>
		<path class="st2" d="M1184.6,333.8c-3.9,0-3.9,6,0,6C1188.4,339.8,1188.5,333.8,1184.6,333.8z"/>
		<path class="st2" d="M1208.5,336.7c-1.2-1.1-3.1-1.2-4.2,0l-1,1c-1.1,1.1-1.2,3.1,0,4.2c1.2,1.1,3.1,1.2,4.2,0
			c0.3-0.3,0.7-0.7,1-1C1209.6,339.8,1209.7,337.8,1208.5,336.7z"/>
		<path class="st2" d="M1230.2,340c-1.6,0.1-3,1.3-3,3v1c0,1.6,1.4,3.1,3,3c1.6-0.1,3-1.3,3-3v-1
			C1233.2,341.4,1231.8,339.9,1230.2,340z"/>
		<path class="st2" d="M1257.2,312c-1.6,0.1-3,1.3-3,3v1c0,1.6,1.4,3.1,3,3c1.6-0.1,3-1.3,3-3v-1
			C1260.2,313.4,1258.8,311.9,1257.2,312z"/>
		<path class="st2" d="M1273.8,293.1c-1.2-1.1-3.1-1.2-4.2,0c-0.3,0.3-0.7,0.7-1,1c-1.1,1.1-1.2,3.1,0,4.2c1.2,1.1,3.1,1.2,4.2,0
			l1-1C1274.9,296.3,1275,294.2,1273.8,293.1z"/>
		<path class="st2" d="M1322.5,262.2c-3.9,0-3.9,6,0,6C1326.4,268.2,1326.4,262.2,1322.5,262.2z"/>
		<path class="st2" d="M1127.5,337.9c-3.9,0-3.9,6,0,6C1131.4,343.9,1131.4,337.9,1127.5,337.9z"/>
		<path class="st2" d="M1175.3,310.9c-3.9,0-3.9,6,0,6C1179.1,316.9,1179.1,310.9,1175.3,310.9z"/>
		<path class="st2" d="M1233.8,270.9c-1.6-0.8-3.1-0.3-4.1,1.1c-1,1.4-2.1,2.8-3.1,4.1c-0.9,1.3-0.2,3.4,1.1,4.1
			c1.6,0.8,3.1,0.3,4.1-1.1c1-1.4,2.1-2.8,3.1-4.1C1235.8,273.7,1235.1,271.6,1233.8,270.9z"/>
		<path class="st2" d="M1206.4,460.2c-3.9,0.3-7.5,1.5-10.8,3.6c-3.2,2.1-0.2,7.3,3,5.2c2.4-1.5,5-2.5,7.8-2.7c1.6-0.1,3-1.3,3-3
			C1209.4,461.7,1208,460.1,1206.4,460.2z"/>
		<path class="st2" d="M1279,460.3c-3.9,0-3.9,6,0,6C1282.8,466.3,1282.8,460.3,1279,460.3z"/>
		<path class="st2" d="M1336.5,463.8c-1.4-0.7-3.4-0.4-4.1,1.1l-1,2.1c-0.7,1.4-0.4,3.3,1.1,4.1c1.4,0.7,3.4,0.4,4.1-1.1
			c0.3-0.7,0.7-1.4,1-2.1C1338.3,466.5,1338,464.6,1336.5,463.8z"/>
		<path class="st2" d="M1375.4,457.2c-3.9,0-3.9,6,0,6C1379.3,463.2,1379.3,457.2,1375.4,457.2z"/>
	</g>
</g>
</svg>
